<svg xmlns="http://www.w3.org/2000/svg" width="256" height="256" viewBox="0 0 256 256"><rect width="256" height="256" fill="#1a6fdb" rx="32"/><path fill="#fff" d="m52 43 7-7h75v26h28v114H52z"/><path fill="#c5dcf7" d="M134 36h28v26z"/><path fill="#ddeefa" d="m134 36 28 26h-28z"/><rect width="58" height="7" x="64" y="74" fill="#cce0f7" rx="3"/><rect width="74" height="7" x="64" y="88" fill="#cce0f7" rx="3"/><rect width="48" height="7" x="64" y="102" fill="#cce0f7" rx="3"/><rect width="66" height="7" x="64" y="122" fill="#cce0f7" rx="3"/><rect width="52" height="7" x="64" y="136" fill="#cce0f7" rx="3"/><circle cx="158" cy="158" r="44" fill="#2ecc71"/><circle cx="158" cy="158" r="44" fill="none" stroke="#fff" stroke-width="8"/><path stroke="#fff" stroke-linecap="round" stroke-width="11" d="m191 191 25 25"/><path fill="none" stroke="#fff" stroke-linecap="round" stroke-linejoin="round" stroke-width="9" d="m136 158 15 15 29-30"/></svg>